<?xml version="1.0" encoding="UTF-8" standalone="no"?>
<!-- Created with Inkscape (http://www.inkscape.org/) -->

<svg
   xmlns:dc="http://purl.org/dc/elements/1.1/"
   xmlns:cc="http://creativecommons.org/ns#"
   xmlns:rdf="http://www.w3.org/1999/02/22-rdf-syntax-ns#"
   xmlns:svg="http://www.w3.org/2000/svg"
   xmlns="http://www.w3.org/2000/svg"
   xmlns:sodipodi="http://sodipodi.sourceforge.net/DTD/sodipodi-0.dtd"
   xmlns:inkscape="http://www.inkscape.org/namespaces/inkscape"
   version="1.1"
   width="400"
   height="400"
   viewBox="0 0 399.45302 401.91783"
   id="Layer_1"
   xml:space="preserve"
   inkscape:version="0.47 r22583"
   sodipodi:docname="NOAA_logo-no text.svg"><metadata
   id="metadata10"><rdf:RDF><cc:Work
       rdf:about=""><dc:format>image/svg+xml</dc:format><dc:type
         rdf:resource="http://purl.org/dc/dcmitype/StillImage" /><dc:title></dc:title></cc:Work></rdf:RDF></metadata><sodipodi:namedview
   pagecolor="#ffffff"
   bordercolor="#666666"
   borderopacity="1"
   objecttolerance="10"
   gridtolerance="10"
   guidetolerance="10"
   inkscape:pageopacity="0"
   inkscape:pageshadow="2"
   inkscape:window-width="886"
   inkscape:window-height="863"
   id="namedview8"
   showgrid="false"
   inkscape:snap-page="false"
   inkscape:zoom="1.2828164"
   inkscape:cx="199.07046"
   inkscape:cy="198.66762"
   inkscape:window-x="0"
   inkscape:window-y="24"
   inkscape:window-maximized="0"
   inkscape:current-layer="Layer_1" /><defs
   id="defs3769"><inkscape:perspective
     sodipodi:type="inkscape:persp3d"
     inkscape:vp_x="0 : 233.86043 : 1"
     inkscape:vp_y="0 : 1000 : 0"
     inkscape:vp_z="467.66931 : 233.86043 : 1"
     inkscape:persp3d-origin="233.83466 : 155.90695 : 1"
     id="perspective12" /></defs>
<path
   d="m 378.89373,112.12387 c 0.11036,-0.0454 24.75,48.75 20.37793,100.625 l 0,0 c -2.37793,87.125 -79.37793,185.95899 -194.12792,189.16895 l -16,-0.33301 C 70.893734,395.70786 -1.7727677,295.37387 -1.4397597,204.70786 l 0,0 c 0.291992,-16.85498 0.224121,-35.69678 7.333496,-59.00049 l 7.2499997,2.1665 c 30.305176,11.4541 62.999998,100 169.292484,105.04004 4.61426,0.21875 13.47754,0.42285 13.45752,0.45996 -6.88037,6.86426 -46,23 -63.75,27.25 4.6416,-1.11133 -0.3628,-0.11426 0,0 l 0,0 c 42.75,26.5 85.5,-24.5 140.99999,-32 l 17,-1 c -3.25,-10.25 -17.88183,-9.38476 -19.25,-9.25 -38.39941,3.78028 -28.80663,-0.62402 -30,-0.25 59,-18.5 93,-65.75 135.4629,-123.20996 l 2.5371,-2.79004 z"
   id="path3758"
   style="fill:#007ec6" />
<path
   d="M 293.14373,23.87388 C 289.02069,21.681009 254.39373,0.87388035 201.22772,0.04038435 85.973334,0.45542335 35.227232,85.040388 35.227232,85.040388 c 25.5,12.5 51.960452,50.144032 52.333002,50.666982 28.537606,40.03955 68.307136,102.1001 119.835456,103.28662 16.49804,0.37988 27.47168,-9.48926 39.99804,-21.62012 45.74415,-44.30273 52.14844,-126.209462 110.75,-137.749992 0,0 -21.75,-32.749998 -65,-55.749998 z m -127.69708,54.176758 13.69738,0 c 5.52577,0 9.97431,4.44854 9.97431,9.97431 l 0,32.968372 c 0,5.52577 -4.44854,9.97431 -9.97431,9.97431 l -13.69738,0 c -5.52577,0 -9.97431,-4.44854 -9.97431,-9.97431 l 0,-32.968372 c 0,-5.52577 4.44854,-9.97431 9.97431,-9.97431 z m 3.64939,9.08 6.39861,0 c 1.27403,0 2.2997,1.02566 2.2997,2.29969 l 0,30.157612 c 0,1.27403 -1.02567,2.29969 -2.2997,2.29969 l -6.39861,0 c -1.27403,0 -2.29969,-1.02566 -2.29969,-2.29969 l 0,-30.157612 c 0,-1.27403 1.02566,-2.29969 2.29969,-2.29969 z m 39.67562,-9.06877 c -5.52577,0 -9.96874,4.44298 -9.96875,9.96875 l 0,42.937492 11.3125,0 0,-21.25 11,0 0,21.25 11.3125,0 0,-42.937492 c 0,-5.52577 -4.44299,-9.96875 -9.96875,-9.96875 l -13.6875,0 z m 3.65625,9.0625 6.375,0 c 1.27402,0 2.3125,1.03847 2.3125,2.3125 l 0,11.218742 -11,0 0,-11.218742 c 0,-1.27403 1.03847,-2.3125 2.3125,-2.3125 z m 39.65332,-9.0625 c -5.52577,0 -9.96874,4.44298 -9.96875,9.96875 l 0,42.937492 11.3125,0 0,-21.25 11,0 0,21.25 11.3125,0 0,-42.937492 c 0,-5.52577 -4.44299,-9.96875 -9.96875,-9.96875 l -13.6875,0 z m 3.65625,9.0625 6.375,0 c 1.27402,0 2.3125,1.03847 2.3125,2.3125 l 0,11.218742 -11,0 0,-11.218742 c 0,-1.27403 1.03847,-2.3125 2.3125,-2.3125 z m -143.60596,-9.0625 0,52.906242 11.34375,0 0,-41.531242 c -10e-6,-1.27403 1.00722,-2.3125 2.28125,-2.3125 l 6.40625,0 c 1.27403,0 2.3125,1.03847 2.3125,2.3125 l 0,41.531242 11.3125,0 0,-42.937492 c 0,-5.52577 -4.44298,-9.96875 -9.96875,-9.96875 l -23.6875,0 z"
   id="path3766"
   style="fill:#263f78;fill-opacity:1;fill-rule:evenodd" /></svg>